# xmcd
#
# Track frame offsets:
#	150
#	20086
#	39368
#	64780
#	82292
#	102566
#	123147
#	148597
#	170902
#	194182
#	216738
#	235992
#
# Disc length: 3378 seconds
#
# Revision: 1
# Processed by: cddbd v1.5.2PL0 Copyright (c) Steve Scherf et al.
# Submitted via: EZCDAudioConverter 8.0.2.1
#
DISCID=c20d300c
DTITLE=Lâm Hùng - Vol 06. Một Ngày Biết Trước
DYEAR=2011
DGENRE=World Pop
TTITLE0=Lâm Hùng, Vĩnh Thuyên Kim - Một Ngày Biết Trước
TTITLE1=Lâm Hùng - Em về đi
TTITLE2=Lâm Hùng - Xin nhớ nhau đêm này
TTITLE3=Lâm Hùng, Hoàng Châu - Tiễn một người đi
TTITLE4=Lâm Hùng - Xóa tên người tình
TTITLE5=Lâm Hùng - Mùa đông không có em
TTITLE6=Lâm Hùng, Uyên Trang - Biết yêu anh là thế
TTITLE7=Lâm Hùng - Lời nguyện cầu cho em
TTITLE8=Lâm Hùng - Nước mắt đàn ông
TTITLE9=Lâm Hùng, La Chiêu An - Khổ vì yêu em
TTITLE10=Lâm Hùng - Nghĩa và tình
TTITLE11=Lâm Hùng - Tình yêu ơi
EXTD=
EXTT0=
EXTT1=
EXTT2=
EXTT3=
EXTT4=
EXTT5=
EXTT6=
EXTT7=
EXTT8=
EXTT9=
EXTT10=
EXTT11=
PLAYORDER=
